<mxfile host="app.diagrams.net" agent="Mozilla/5.0 (Windows NT 10.0; Win64; x64) AppleWebKit/537.36 (KHTML, like Gecko) Chrome/131.0.0.0 Safari/537.36" version="24.9.3">
  <diagram name="Page-1" id="cXf2GQKjWKF9Lp0_-bPR">
    <mxGraphModel dx="2579" dy="1456" grid="0" gridSize="10" guides="1" tooltips="1" connect="1" arrows="1" fold="1" page="0" pageScale="1" pageWidth="827" pageHeight="1169" math="0" shadow="0">
      <root>
        <mxCell id="0" />
        <mxCell id="1" parent="0" />
        <mxCell id="Psi2qHV0cRo6ceo7dTG1-1" value="Moniteur" style="shape=umlActor;verticalLabelPosition=bottom;verticalAlign=top;html=1;outlineConnect=0;" parent="1" vertex="1">
          <mxGeometry x="-956" y="-341" width="30" height="60" as="geometry" />
        </mxCell>
        <mxCell id="Psi2qHV0cRo6ceo7dTG1-2" value="Garçon-de-plage" style="shape=umlActor;verticalLabelPosition=bottom;verticalAlign=top;html=1;outlineConnect=0;" parent="1" vertex="1">
          <mxGeometry x="-956" y="-491" width="30" height="60" as="geometry" />
        </mxCell>
        <mxCell id="Psi2qHV0cRo6ceo7dTG1-3" value="Propriétaire" style="shape=umlActor;verticalLabelPosition=bottom;verticalAlign=top;html=1;outlineConnect=0;" parent="1" vertex="1">
          <mxGeometry x="-956" y="-190" width="30" height="60" as="geometry" />
        </mxCell>
        <mxCell id="Psi2qHV0cRo6ceo7dTG1-10" value="" style="swimlane;startSize=0;" parent="1" vertex="1">
          <mxGeometry x="-599" y="-542" width="207" height="778" as="geometry" />
        </mxCell>
        <mxCell id="Psi2qHV0cRo6ceo7dTG1-12" value="&lt;b&gt;&lt;span style=&quot;font-size:12.0pt;line-height:115%;&lt;br/&gt;font-family:&amp;quot;Aptos&amp;quot;,sans-serif;mso-ascii-theme-font:minor-latin;mso-fareast-font-family:&lt;br/&gt;Aptos;mso-fareast-theme-font:minor-latin;mso-hansi-theme-font:minor-latin;&lt;br/&gt;mso-bidi-font-family:&amp;quot;Times New Roman&amp;quot;;mso-bidi-theme-font:minor-bidi;&lt;br/&gt;mso-ansi-language:FR;mso-fareast-language:EN-US;mso-bidi-language:AR-SA&quot;&gt;Se connecter&lt;br/&gt;sur le site&lt;/span&gt;&lt;/b&gt;" style="ellipse;whiteSpace=wrap;html=1;" parent="Psi2qHV0cRo6ceo7dTG1-10" vertex="1">
          <mxGeometry x="23.869999999999997" y="4" width="159.25" height="52" as="geometry" />
        </mxCell>
        <mxCell id="Psi2qHV0cRo6ceo7dTG1-13" value="&lt;b&gt;&lt;span style=&quot;font-size:12.0pt;line-height:115%;&lt;br/&gt;font-family:&amp;quot;Aptos&amp;quot;,sans-serif;mso-ascii-theme-font:minor-latin;mso-fareast-font-family:&lt;br/&gt;Aptos;mso-fareast-theme-font:minor-latin;mso-hansi-theme-font:minor-latin;&lt;br/&gt;mso-bidi-font-family:&amp;quot;Times New Roman&amp;quot;;mso-bidi-theme-font:minor-bidi;&lt;br/&gt;mso-ansi-language:FR;mso-fareast-language:EN-US;mso-bidi-language:AR-SA&quot;&gt;Créer une&lt;br/&gt;saison&amp;nbsp;&lt;/span&gt;&lt;/b&gt;" style="ellipse;whiteSpace=wrap;html=1;" parent="Psi2qHV0cRo6ceo7dTG1-10" vertex="1">
          <mxGeometry x="23.87" y="474" width="159.25" height="52" as="geometry" />
        </mxCell>
        <mxCell id="Psi2qHV0cRo6ceo7dTG1-14" value="&lt;b&gt;&lt;span style=&quot;font-size:12.0pt;line-height:115%;&lt;br/&gt;font-family:&amp;quot;Aptos&amp;quot;,sans-serif;mso-ascii-theme-font:minor-latin;mso-fareast-font-family:&lt;br/&gt;Aptos;mso-fareast-theme-font:minor-latin;mso-hansi-theme-font:minor-latin;&lt;br/&gt;mso-bidi-font-family:&amp;quot;Times New Roman&amp;quot;;mso-bidi-theme-font:minor-bidi;&lt;br/&gt;mso-ansi-language:FR;mso-fareast-language:EN-US;mso-bidi-language:AR-SA&quot;&gt;Afficher&lt;br/&gt;un compte client&amp;nbsp;&lt;/span&gt;&lt;/b&gt;" style="ellipse;whiteSpace=wrap;html=1;" parent="Psi2qHV0cRo6ceo7dTG1-10" vertex="1">
          <mxGeometry x="23.87" y="121" width="159.25" height="52" as="geometry" />
        </mxCell>
        <mxCell id="O1G0JqCpLjOHNacf1Rvf-2" value="&lt;b&gt;&lt;span style=&quot;font-size:12.0pt;line-height:115%;&lt;br/&gt;font-family:&amp;quot;Aptos&amp;quot;,sans-serif;mso-ascii-theme-font:minor-latin;mso-fareast-font-family:&lt;br/&gt;Aptos;mso-fareast-theme-font:minor-latin;mso-hansi-theme-font:minor-latin;&lt;br/&gt;mso-bidi-font-family:&amp;quot;Times New Roman&amp;quot;;mso-bidi-theme-font:minor-bidi;&lt;br/&gt;mso-ansi-language:FR;mso-fareast-language:EN-US;mso-bidi-language:AR-SA&quot;&gt;Gérer&lt;br&gt;un compte client&lt;/span&gt;&lt;/b&gt;" style="ellipse;whiteSpace=wrap;html=1;" parent="Psi2qHV0cRo6ceo7dTG1-10" vertex="1">
          <mxGeometry x="23.87" y="180" width="159.25" height="52" as="geometry" />
        </mxCell>
        <mxCell id="O1G0JqCpLjOHNacf1Rvf-9" value="&lt;b&gt;&lt;span style=&quot;font-size: 11.5pt; line-height: 115%; color: rgb(29, 33, 37); background-image: initial; background-position: initial; background-size: initial; background-repeat: initial; background-attachment: initial; background-origin: initial; background-clip: initial;&quot;&gt;&lt;font face=&quot;Helvetica&quot;&gt;Gérer les forfaits&amp;nbsp;&lt;/font&gt;&lt;/span&gt;&lt;/b&gt;" style="ellipse;whiteSpace=wrap;html=1;" parent="Psi2qHV0cRo6ceo7dTG1-10" vertex="1">
          <mxGeometry x="23.880000000000003" y="238" width="159.25" height="52" as="geometry" />
        </mxCell>
        <mxCell id="O1G0JqCpLjOHNacf1Rvf-10" value="&lt;b&gt;&lt;span style=&quot;font-size:12.0pt;line-height:115%;&lt;br/&gt;font-family:&amp;quot;Aptos&amp;quot;,sans-serif;mso-ascii-theme-font:minor-latin;mso-fareast-font-family:&lt;br/&gt;Aptos;mso-fareast-theme-font:minor-latin;mso-hansi-theme-font:minor-latin;&lt;br/&gt;mso-bidi-font-family:&amp;quot;Times New Roman&amp;quot;;mso-bidi-theme-font:minor-bidi;&lt;br/&gt;mso-ansi-language:FR;mso-fareast-language:EN-US;mso-bidi-language:AR-SA&quot;&gt;Gérer&lt;br&gt;les cours&lt;/span&gt;&lt;/b&gt;" style="ellipse;whiteSpace=wrap;html=1;" parent="Psi2qHV0cRo6ceo7dTG1-10" vertex="1">
          <mxGeometry x="23.87" y="296" width="159.25" height="52" as="geometry" />
        </mxCell>
        <mxCell id="O1G0JqCpLjOHNacf1Rvf-11" value="&lt;b&gt;&lt;span style=&quot;font-size:12.0pt;line-height:115%;&lt;br/&gt;font-family:&amp;quot;Aptos&amp;quot;,sans-serif;mso-ascii-theme-font:minor-latin;mso-fareast-font-family:&lt;br/&gt;Aptos;mso-fareast-theme-font:minor-latin;mso-hansi-theme-font:minor-latin;&lt;br/&gt;mso-bidi-font-family:&amp;quot;Times New Roman&amp;quot;;mso-bidi-theme-font:minor-bidi;&lt;br/&gt;mso-ansi-language:FR;mso-fareast-language:EN-US;mso-bidi-language:AR-SA&quot;&gt;Gérer&lt;br&gt;la location du matériel&amp;nbsp;&lt;/span&gt;&lt;/b&gt;" style="ellipse;whiteSpace=wrap;html=1;" parent="Psi2qHV0cRo6ceo7dTG1-10" vertex="1">
          <mxGeometry x="23.870000000000005" y="356" width="159.25" height="52" as="geometry" />
        </mxCell>
        <mxCell id="O1G0JqCpLjOHNacf1Rvf-14" value="&lt;span style=&quot;font-size: 16px;&quot;&gt;&lt;b&gt;Traiter les données&lt;/b&gt;&lt;/span&gt;" style="ellipse;whiteSpace=wrap;html=1;" parent="Psi2qHV0cRo6ceo7dTG1-10" vertex="1">
          <mxGeometry x="23.869999999999994" y="652" width="159.25" height="52" as="geometry" />
        </mxCell>
        <mxCell id="O1G0JqCpLjOHNacf1Rvf-13" value="&lt;b&gt;&lt;span style=&quot;font-size:12.0pt;line-height:115%;&lt;br/&gt;font-family:&amp;quot;Aptos&amp;quot;,sans-serif;mso-ascii-theme-font:minor-latin;mso-fareast-font-family:&lt;br/&gt;Aptos;mso-fareast-theme-font:minor-latin;mso-hansi-theme-font:minor-latin;&lt;br/&gt;mso-bidi-font-family:&amp;quot;Times New Roman&amp;quot;;mso-bidi-theme-font:minor-bidi;&lt;br/&gt;mso-ansi-language:FR;mso-fareast-language:EN-US;mso-bidi-language:AR-SA&quot;&gt;Gérer&lt;br&gt;le matériel&amp;nbsp;&lt;/span&gt;&lt;/b&gt;" style="ellipse;whiteSpace=wrap;html=1;" parent="Psi2qHV0cRo6ceo7dTG1-10" vertex="1">
          <mxGeometry x="23.869999999999997" y="62" width="159.25" height="52" as="geometry" />
        </mxCell>
        <mxCell id="O1G0JqCpLjOHNacf1Rvf-15" value="&lt;b&gt;&lt;span style=&quot;font-size:12.0pt;line-height:115%;&lt;br/&gt;font-family:&amp;quot;Aptos&amp;quot;,sans-serif;mso-ascii-theme-font:minor-latin;mso-fareast-font-family:&lt;br/&gt;Aptos;mso-fareast-theme-font:minor-latin;mso-hansi-theme-font:minor-latin;&lt;br/&gt;mso-bidi-font-family:&amp;quot;Times New Roman&amp;quot;;mso-bidi-theme-font:minor-bidi;&lt;br/&gt;mso-ansi-language:FR;mso-fareast-language:EN-US;mso-bidi-language:AR-SA&quot;&gt;Afficher les&amp;nbsp;saisons&lt;/span&gt;&lt;/b&gt;" style="ellipse;whiteSpace=wrap;html=1;" parent="Psi2qHV0cRo6ceo7dTG1-10" vertex="1">
          <mxGeometry x="23.88" y="416" width="159.25" height="52" as="geometry" />
        </mxCell>
        <mxCell id="Psi2qHV0cRo6ceo7dTG1-11" value="&lt;span style=&quot;line-height: 115%;&quot;&gt;&lt;span style=&quot;font-size: 16px;&quot;&gt;&lt;b&gt;Ajouter un utilisateur&lt;/b&gt;&lt;/span&gt;&lt;br&gt;&lt;/span&gt;" style="ellipse;whiteSpace=wrap;html=1;" parent="Psi2qHV0cRo6ceo7dTG1-10" vertex="1">
          <mxGeometry x="23.870000000000005" y="532" width="159.25" height="52" as="geometry" />
        </mxCell>
        <mxCell id="V1nAhE4lmNjgNBnLDLDp-1" value="&lt;span style=&quot;line-height: 115%;&quot;&gt;&lt;span style=&quot;font-size: 16px;&quot;&gt;&lt;b&gt;Gérer les données&lt;/b&gt;&lt;/span&gt;&lt;/span&gt;" style="ellipse;whiteSpace=wrap;html=1;" parent="Psi2qHV0cRo6ceo7dTG1-10" vertex="1">
          <mxGeometry x="23.880000000000006" y="592" width="159.25" height="52" as="geometry" />
        </mxCell>
        <mxCell id="V1nAhE4lmNjgNBnLDLDp-6" value="&lt;span style=&quot;font-size: 16px;&quot;&gt;&lt;b&gt;Gérer les messages automatique&lt;/b&gt;&lt;/span&gt;" style="ellipse;whiteSpace=wrap;html=1;" parent="Psi2qHV0cRo6ceo7dTG1-10" vertex="1">
          <mxGeometry x="27.99999999999999" y="712" width="159.25" height="52" as="geometry" />
        </mxCell>
        <mxCell id="O1G0JqCpLjOHNacf1Rvf-19" value="" style="endArrow=none;html=1;rounded=0;entryX=0;entryY=0.5;entryDx=0;entryDy=0;exitX=1;exitY=0.3333333333333333;exitDx=0;exitDy=0;exitPerimeter=0;" parent="1" source="Psi2qHV0cRo6ceo7dTG1-1" target="Psi2qHV0cRo6ceo7dTG1-12" edge="1">
          <mxGeometry width="50" height="50" relative="1" as="geometry">
            <mxPoint x="-596" y="-165" as="sourcePoint" />
            <mxPoint x="-546" y="-215" as="targetPoint" />
          </mxGeometry>
        </mxCell>
        <mxCell id="O1G0JqCpLjOHNacf1Rvf-20" value="" style="endArrow=none;html=1;rounded=0;entryX=0;entryY=0.5;entryDx=0;entryDy=0;exitX=1;exitY=0.3333333333333333;exitDx=0;exitDy=0;exitPerimeter=0;" parent="1" source="Psi2qHV0cRo6ceo7dTG1-2" target="Psi2qHV0cRo6ceo7dTG1-12" edge="1">
          <mxGeometry width="50" height="50" relative="1" as="geometry">
            <mxPoint x="-596" y="-165" as="sourcePoint" />
            <mxPoint x="-546" y="-215" as="targetPoint" />
          </mxGeometry>
        </mxCell>
        <mxCell id="O1G0JqCpLjOHNacf1Rvf-21" value="" style="endArrow=none;html=1;rounded=0;entryX=0;entryY=0.5;entryDx=0;entryDy=0;exitX=1;exitY=0.3333333333333333;exitDx=0;exitDy=0;exitPerimeter=0;" parent="1" source="Psi2qHV0cRo6ceo7dTG1-3" target="Psi2qHV0cRo6ceo7dTG1-12" edge="1">
          <mxGeometry width="50" height="50" relative="1" as="geometry">
            <mxPoint x="-596" y="-165" as="sourcePoint" />
            <mxPoint x="-546" y="-215" as="targetPoint" />
          </mxGeometry>
        </mxCell>
        <mxCell id="O1G0JqCpLjOHNacf1Rvf-22" value="" style="endArrow=none;html=1;rounded=0;entryX=0;entryY=0.5;entryDx=0;entryDy=0;exitX=1;exitY=0.3333333333333333;exitDx=0;exitDy=0;exitPerimeter=0;" parent="1" source="Psi2qHV0cRo6ceo7dTG1-3" target="Psi2qHV0cRo6ceo7dTG1-13" edge="1">
          <mxGeometry width="50" height="50" relative="1" as="geometry">
            <mxPoint x="-596" y="-165" as="sourcePoint" />
            <mxPoint x="-546" y="-215" as="targetPoint" />
          </mxGeometry>
        </mxCell>
        <mxCell id="O1G0JqCpLjOHNacf1Rvf-23" value="" style="endArrow=none;html=1;rounded=0;entryX=0;entryY=0.5;entryDx=0;entryDy=0;exitX=1;exitY=0.3333333333333333;exitDx=0;exitDy=0;exitPerimeter=0;" parent="1" source="Psi2qHV0cRo6ceo7dTG1-3" target="O1G0JqCpLjOHNacf1Rvf-15" edge="1">
          <mxGeometry width="50" height="50" relative="1" as="geometry">
            <mxPoint x="-596" y="-165" as="sourcePoint" />
            <mxPoint x="-546" y="-215" as="targetPoint" />
          </mxGeometry>
        </mxCell>
        <mxCell id="O1G0JqCpLjOHNacf1Rvf-24" value="" style="endArrow=none;html=1;rounded=0;entryX=0;entryY=0.5;entryDx=0;entryDy=0;exitX=1;exitY=0.3333333333333333;exitDx=0;exitDy=0;exitPerimeter=0;" parent="1" source="Psi2qHV0cRo6ceo7dTG1-1" target="Psi2qHV0cRo6ceo7dTG1-14" edge="1">
          <mxGeometry width="50" height="50" relative="1" as="geometry">
            <mxPoint x="-596" y="-165" as="sourcePoint" />
            <mxPoint x="-546" y="-215" as="targetPoint" />
          </mxGeometry>
        </mxCell>
        <mxCell id="O1G0JqCpLjOHNacf1Rvf-25" value="" style="endArrow=none;html=1;rounded=0;entryX=0;entryY=0.5;entryDx=0;entryDy=0;exitX=1;exitY=0.3333333333333333;exitDx=0;exitDy=0;exitPerimeter=0;" parent="1" source="Psi2qHV0cRo6ceo7dTG1-3" target="Psi2qHV0cRo6ceo7dTG1-14" edge="1">
          <mxGeometry width="50" height="50" relative="1" as="geometry">
            <mxPoint x="-596" y="-165" as="sourcePoint" />
            <mxPoint x="-546" y="-215" as="targetPoint" />
          </mxGeometry>
        </mxCell>
        <mxCell id="O1G0JqCpLjOHNacf1Rvf-26" value="" style="endArrow=none;html=1;rounded=0;entryX=0;entryY=0.5;entryDx=0;entryDy=0;exitX=1;exitY=0.3333333333333333;exitDx=0;exitDy=0;exitPerimeter=0;" parent="1" source="Psi2qHV0cRo6ceo7dTG1-1" target="O1G0JqCpLjOHNacf1Rvf-2" edge="1">
          <mxGeometry width="50" height="50" relative="1" as="geometry">
            <mxPoint x="-596" y="-165" as="sourcePoint" />
            <mxPoint x="-546" y="-215" as="targetPoint" />
          </mxGeometry>
        </mxCell>
        <mxCell id="O1G0JqCpLjOHNacf1Rvf-27" value="" style="endArrow=none;html=1;rounded=0;exitX=1;exitY=0.3333333333333333;exitDx=0;exitDy=0;exitPerimeter=0;entryX=0;entryY=0.5;entryDx=0;entryDy=0;" parent="1" source="Psi2qHV0cRo6ceo7dTG1-3" target="O1G0JqCpLjOHNacf1Rvf-2" edge="1">
          <mxGeometry width="50" height="50" relative="1" as="geometry">
            <mxPoint x="-596" y="-165" as="sourcePoint" />
            <mxPoint x="-546" y="-215" as="targetPoint" />
          </mxGeometry>
        </mxCell>
        <mxCell id="O1G0JqCpLjOHNacf1Rvf-28" value="" style="endArrow=none;html=1;rounded=0;exitX=1;exitY=0.3333333333333333;exitDx=0;exitDy=0;exitPerimeter=0;entryX=0;entryY=0.5;entryDx=0;entryDy=0;" parent="1" source="Psi2qHV0cRo6ceo7dTG1-3" target="O1G0JqCpLjOHNacf1Rvf-9" edge="1">
          <mxGeometry width="50" height="50" relative="1" as="geometry">
            <mxPoint x="-596" y="-165" as="sourcePoint" />
            <mxPoint x="-546" y="-215" as="targetPoint" />
          </mxGeometry>
        </mxCell>
        <mxCell id="O1G0JqCpLjOHNacf1Rvf-29" value="" style="endArrow=none;html=1;rounded=0;exitX=1;exitY=0.3333333333333333;exitDx=0;exitDy=0;exitPerimeter=0;entryX=0;entryY=0.5;entryDx=0;entryDy=0;" parent="1" source="Psi2qHV0cRo6ceo7dTG1-1" target="O1G0JqCpLjOHNacf1Rvf-9" edge="1">
          <mxGeometry width="50" height="50" relative="1" as="geometry">
            <mxPoint x="-596" y="-165" as="sourcePoint" />
            <mxPoint x="-546" y="-215" as="targetPoint" />
          </mxGeometry>
        </mxCell>
        <mxCell id="O1G0JqCpLjOHNacf1Rvf-30" value="" style="endArrow=none;html=1;rounded=0;exitX=1;exitY=0.3333333333333333;exitDx=0;exitDy=0;exitPerimeter=0;entryX=0;entryY=0.5;entryDx=0;entryDy=0;" parent="1" source="Psi2qHV0cRo6ceo7dTG1-3" target="O1G0JqCpLjOHNacf1Rvf-10" edge="1">
          <mxGeometry width="50" height="50" relative="1" as="geometry">
            <mxPoint x="-596" y="-165" as="sourcePoint" />
            <mxPoint x="-546" y="-215" as="targetPoint" />
          </mxGeometry>
        </mxCell>
        <mxCell id="O1G0JqCpLjOHNacf1Rvf-31" value="" style="endArrow=none;html=1;rounded=0;entryX=0;entryY=0.5;entryDx=0;entryDy=0;exitX=1;exitY=0.3333333333333333;exitDx=0;exitDy=0;exitPerimeter=0;" parent="1" source="Psi2qHV0cRo6ceo7dTG1-3" target="O1G0JqCpLjOHNacf1Rvf-10" edge="1">
          <mxGeometry width="50" height="50" relative="1" as="geometry">
            <mxPoint x="-596" y="-165" as="sourcePoint" />
            <mxPoint x="-546" y="-215" as="targetPoint" />
          </mxGeometry>
        </mxCell>
        <mxCell id="O1G0JqCpLjOHNacf1Rvf-32" value="" style="endArrow=none;html=1;rounded=0;entryX=0;entryY=0.5;entryDx=0;entryDy=0;exitX=1;exitY=0.3333333333333333;exitDx=0;exitDy=0;exitPerimeter=0;" parent="1" source="Psi2qHV0cRo6ceo7dTG1-1" target="O1G0JqCpLjOHNacf1Rvf-10" edge="1">
          <mxGeometry width="50" height="50" relative="1" as="geometry">
            <mxPoint x="-596" y="-165" as="sourcePoint" />
            <mxPoint x="-546" y="-215" as="targetPoint" />
          </mxGeometry>
        </mxCell>
        <mxCell id="O1G0JqCpLjOHNacf1Rvf-33" value="" style="endArrow=none;html=1;rounded=0;entryX=0;entryY=0.5;entryDx=0;entryDy=0;exitX=1;exitY=0.3333333333333333;exitDx=0;exitDy=0;exitPerimeter=0;" parent="1" source="Psi2qHV0cRo6ceo7dTG1-3" target="O1G0JqCpLjOHNacf1Rvf-11" edge="1">
          <mxGeometry width="50" height="50" relative="1" as="geometry">
            <mxPoint x="-782" y="-34" as="sourcePoint" />
            <mxPoint x="-546" y="-215" as="targetPoint" />
          </mxGeometry>
        </mxCell>
        <mxCell id="O1G0JqCpLjOHNacf1Rvf-34" value="" style="endArrow=none;html=1;rounded=0;entryX=0;entryY=0.5;entryDx=0;entryDy=0;exitX=1;exitY=0.3333333333333333;exitDx=0;exitDy=0;exitPerimeter=0;" parent="1" source="Psi2qHV0cRo6ceo7dTG1-1" target="O1G0JqCpLjOHNacf1Rvf-11" edge="1">
          <mxGeometry width="50" height="50" relative="1" as="geometry">
            <mxPoint x="-795" y="-166" as="sourcePoint" />
            <mxPoint x="-745" y="-216" as="targetPoint" />
          </mxGeometry>
        </mxCell>
        <mxCell id="O1G0JqCpLjOHNacf1Rvf-35" value="" style="endArrow=none;html=1;rounded=0;entryX=0;entryY=0.5;entryDx=0;entryDy=0;exitX=1;exitY=0.3333333333333333;exitDx=0;exitDy=0;exitPerimeter=0;" parent="1" source="Psi2qHV0cRo6ceo7dTG1-3" target="O1G0JqCpLjOHNacf1Rvf-13" edge="1">
          <mxGeometry width="50" height="50" relative="1" as="geometry">
            <mxPoint x="-801" y="-91" as="sourcePoint" />
            <mxPoint x="-691" y="33" as="targetPoint" />
          </mxGeometry>
        </mxCell>
        <mxCell id="O1G0JqCpLjOHNacf1Rvf-36" value="" style="endArrow=none;html=1;rounded=0;exitX=1;exitY=0.3333333333333333;exitDx=0;exitDy=0;exitPerimeter=0;entryX=0;entryY=0.5;entryDx=0;entryDy=0;" parent="1" source="Psi2qHV0cRo6ceo7dTG1-2" target="O1G0JqCpLjOHNacf1Rvf-13" edge="1">
          <mxGeometry width="50" height="50" relative="1" as="geometry">
            <mxPoint x="-751" y="-166" as="sourcePoint" />
            <mxPoint x="-701" y="-216" as="targetPoint" />
          </mxGeometry>
        </mxCell>
        <mxCell id="O1G0JqCpLjOHNacf1Rvf-37" value="" style="endArrow=none;html=1;rounded=0;exitX=0;exitY=0.5;exitDx=0;exitDy=0;entryX=1;entryY=0.3333333333333333;entryDx=0;entryDy=0;entryPerimeter=0;" parent="1" source="O1G0JqCpLjOHNacf1Rvf-13" target="Psi2qHV0cRo6ceo7dTG1-1" edge="1">
          <mxGeometry width="50" height="50" relative="1" as="geometry">
            <mxPoint x="-751" y="-166" as="sourcePoint" />
            <mxPoint x="-701" y="-216" as="targetPoint" />
          </mxGeometry>
        </mxCell>
        <mxCell id="O1G0JqCpLjOHNacf1Rvf-38" value="" style="endArrow=none;html=1;rounded=0;entryX=0;entryY=0.5;entryDx=0;entryDy=0;exitX=1;exitY=0.5;exitDx=0;exitDy=0;" parent="1" source="O1G0JqCpLjOHNacf1Rvf-39" target="O1G0JqCpLjOHNacf1Rvf-14" edge="1">
          <mxGeometry width="50" height="50" relative="1" as="geometry">
            <mxPoint x="-209.88895670572916" y="-167" as="sourcePoint" />
            <mxPoint x="-701" y="-216" as="targetPoint" />
          </mxGeometry>
        </mxCell>
        <mxCell id="O1G0JqCpLjOHNacf1Rvf-39" value="" style="swimlane;startSize=0;" parent="1" vertex="1">
          <mxGeometry x="-982" y="139" width="186" height="49" as="geometry" />
        </mxCell>
        <mxCell id="O1G0JqCpLjOHNacf1Rvf-40" value="&lt;span style=&quot;font-size:12.0pt;line-height:115%;&lt;br/&gt;font-family:&amp;quot;Aptos&amp;quot;,sans-serif;mso-ascii-theme-font:minor-latin;mso-fareast-font-family:&lt;br/&gt;Aptos;mso-fareast-theme-font:minor-latin;mso-hansi-theme-font:minor-latin;&lt;br/&gt;mso-bidi-font-family:&amp;quot;Times New Roman&amp;quot;;mso-bidi-theme-font:minor-bidi;&lt;br/&gt;mso-ansi-language:FR;mso-fareast-language:EN-US;mso-bidi-language:AR-SA&quot;&gt;Système&lt;/span&gt;" style="text;html=1;align=center;verticalAlign=middle;resizable=0;points=[];autosize=1;strokeColor=none;fillColor=none;" parent="O1G0JqCpLjOHNacf1Rvf-39" vertex="1">
          <mxGeometry x="56" y="9.5" width="80" height="30" as="geometry" />
        </mxCell>
        <mxCell id="V1nAhE4lmNjgNBnLDLDp-2" value="&lt;font face=&quot;Helvetica&quot;&gt;&lt;br&gt;&lt;b id=&quot;docs-internal-guid-a3bb6390-7fff-4a4a-c42f-9272e0633d8a&quot; style=&quot;font-weight:normal;&quot;&gt;&lt;span style=&quot;color: rgb(0, 0, 0); background-color: transparent; font-weight: 400; font-style: normal; font-variant: normal; text-decoration: none; vertical-align: baseline; white-space: pre-wrap;&quot;&gt;&lt;font style=&quot;font-size: 12px;&quot;&gt;Gestionnaire du système&lt;/font&gt;&lt;/span&gt;&lt;/b&gt;&lt;/font&gt;" style="shape=umlActor;verticalLabelPosition=bottom;verticalAlign=top;html=1;outlineConnect=0;" parent="1" vertex="1">
          <mxGeometry x="-959" y="-39" width="30" height="60" as="geometry" />
        </mxCell>
        <mxCell id="V1nAhE4lmNjgNBnLDLDp-3" value="" style="endArrow=none;html=1;rounded=0;entryX=1;entryY=0.3333333333333333;entryDx=0;entryDy=0;entryPerimeter=0;exitX=0;exitY=0.5;exitDx=0;exitDy=0;" parent="1" source="Psi2qHV0cRo6ceo7dTG1-11" target="V1nAhE4lmNjgNBnLDLDp-2" edge="1">
          <mxGeometry width="50" height="50" relative="1" as="geometry">
            <mxPoint x="-405" y="-179" as="sourcePoint" />
            <mxPoint x="-355" y="-229" as="targetPoint" />
          </mxGeometry>
        </mxCell>
        <mxCell id="V1nAhE4lmNjgNBnLDLDp-4" value="" style="endArrow=none;html=1;rounded=0;exitX=1;exitY=0.3333333333333333;exitDx=0;exitDy=0;exitPerimeter=0;entryX=0;entryY=0.5;entryDx=0;entryDy=0;" parent="1" source="V1nAhE4lmNjgNBnLDLDp-2" target="V1nAhE4lmNjgNBnLDLDp-1" edge="1">
          <mxGeometry width="50" height="50" relative="1" as="geometry">
            <mxPoint x="-405" y="-179" as="sourcePoint" />
            <mxPoint x="-355" y="-229" as="targetPoint" />
          </mxGeometry>
        </mxCell>
        <mxCell id="V1nAhE4lmNjgNBnLDLDp-7" value="" style="endArrow=none;html=1;rounded=0;entryX=1;entryY=0.5;entryDx=0;entryDy=0;exitX=0;exitY=0.5;exitDx=0;exitDy=0;" parent="1" source="V1nAhE4lmNjgNBnLDLDp-6" target="O1G0JqCpLjOHNacf1Rvf-39" edge="1">
          <mxGeometry width="50" height="50" relative="1" as="geometry">
            <mxPoint x="-405" y="142" as="sourcePoint" />
            <mxPoint x="-355" y="92" as="targetPoint" />
          </mxGeometry>
        </mxCell>
      </root>
    </mxGraphModel>
  </diagram>
</mxfile>
